<?xml version="1.0" encoding="UTF-8"?>
<!DOCTYPE svg PUBLIC "-//W3C//DTD SVG 1.1//EN" "http://www.w3.org/Graphics/SVG/1.1/DTD/svg11.dtd">
<!-- Creator: CorelDRAW 2021 (64-Bit) -->
<svg xmlns="http://www.w3.org/2000/svg" xml:space="preserve" width="2.74218in" height="0.812449in" version="1.1" style="shape-rendering:geometricPrecision; text-rendering:geometricPrecision; image-rendering:optimizeQuality; fill-rule:evenodd; clip-rule:evenodd"
viewBox="0 0 5259.39 1558.24"
 xmlns:xlink="http://www.w3.org/1999/xlink"
 xmlns:xodm="http://www.corel.com/coreldraw/odm/2003">
 <defs>
  <style type="text/css">
   <![CDATA[
    .fil2 {fill:#00A6E2}
    .fil3 {fill:#FF0066}
    .fil1 {fill:#00A6E2;fill-rule:nonzero}
    .fil0 {fill:#FF0066;fill-rule:nonzero}
   ]]>
  </style>
 </defs>
 <g id="Layer_x0020_1">
  <metadata id="CorelCorpID_0Corel-Layer"/>
  <path class="fil0" d="M-0 1557.18l0 -151.31 64.15 0c6.96,0 13.36,1.43 19.18,4.27 5.83,2.84 10.9,6.68 15.24,11.51 4.33,4.83 7.71,10.22 10.13,16.2 2.41,5.97 3.62,12.07 3.62,18.33 0,8.53 -1.99,16.62 -5.97,24.29 -3.98,7.67 -9.45,13.92 -16.41,18.76 -6.96,4.83 -15.2,7.24 -24.72,7.24l-35.8 0 0 50.72 -29.41 0zm29.41 -76.51l34.1 0c3.55,0 6.74,-0.99 9.59,-2.98 2.84,-1.99 5.11,-4.86 6.82,-8.63 1.7,-3.76 2.55,-8.06 2.55,-12.89 0,-5.26 -0.96,-9.73 -2.88,-13.43 -1.92,-3.69 -4.4,-6.46 -7.45,-8.31 -3.06,-1.84 -6.36,-2.77 -9.91,-2.77l-32.82 0 0 49.01z"/>
  <polygon id="_1" class="fil0" points="259.99,1405.87 259.99,1557.18 230.8,1557.18 230.8,1492.61 162.17,1492.61 162.17,1557.18 132.76,1557.18 132.76,1405.87 162.17,1405.87 162.17,1467.03 230.8,1467.03 230.8,1405.87 "/>
  <path id="_2" class="fil0" d="M332.65 1405.87l29.83 0 55.62 151.31 -30.26 0 -12.57 -37.72 -55.55 0 -12.64 37.72 -30.26 0 55.83 -151.31zm35.73 92.92l-20.81 -62.44 -20.92 62.44 41.73 0z"/>
  <path id="_3" class="fil0" d="M434.73 1557.18l0 -151.31 66.92 0c6.96,0 13.39,1.43 19.29,4.27 5.9,2.84 11.01,6.68 15.34,11.51 4.33,4.83 7.67,10.22 10.02,16.2 2.34,5.97 3.51,12.07 3.51,18.33 0,6.39 -1.1,12.53 -3.3,18.43 -2.2,5.9 -5.36,11.05 -9.48,15.45 -4.12,4.4 -8.95,7.82 -14.49,10.23l34.52 56.9 -32.39 0 -31.11 -50.72 -29.41 0 0 50.72 -29.41 0zm29.41 -76.51l36.86 0c3.7,0 6.96,-1.1 9.81,-3.3 2.84,-2.2 5.11,-5.15 6.82,-8.84 1.71,-3.7 2.55,-7.82 2.55,-12.36 0,-4.83 -0.99,-9.06 -2.98,-12.68 -1.99,-3.62 -4.51,-6.5 -7.57,-8.63 -3.05,-2.14 -6.35,-3.2 -9.91,-3.2l-35.59 0 0 49.01z"/>
  <polygon id="_4" class="fil0" points="699.84,1557.18 699.84,1457.87 661.05,1531.82 644.64,1531.82 605.86,1457.87 605.86,1557.18 576.44,1557.18 576.44,1405.87 607.99,1405.87 652.74,1491.97 697.92,1405.87 729.25,1405.87 729.25,1557.18 "/>
  <path id="_5" class="fil0" d="M801.91 1405.87l29.83 0 55.62 151.31 -30.26 0 -12.57 -37.72 -55.55 0 -12.64 37.72 -30.26 0 55.83 -151.31zm35.73 92.92l-20.81 -62.44 -20.92 62.44 41.73 0z"/>
  <path id="_6" class="fil0" d="M889.07 1480.25c0,-9.23 1.67,-18.3 5.01,-27.17 3.34,-8.88 8.21,-16.98 14.6,-24.3 6.4,-7.32 14.21,-13.14 23.45,-17.47 9.23,-4.33 19.75,-6.5 31.54,-6.5 13.92,0 25.96,3.06 36.12,9.17 10.16,6.11 17.72,14.06 22.7,23.87l-22.59 15.56c-2.55,-5.69 -5.89,-10.19 -10.01,-13.53 -4.12,-3.34 -8.53,-5.69 -13.21,-7.04 -4.69,-1.34 -9.3,-2.02 -13.85,-2.02 -7.39,0 -13.82,1.5 -19.29,4.48 -5.47,2.98 -10.06,6.89 -13.75,11.72 -3.69,4.83 -6.43,10.23 -8.2,16.2 -1.77,5.97 -2.67,11.94 -2.67,17.9 0,6.68 1.06,13.1 3.19,19.29 2.14,6.18 5.15,11.65 9.06,16.41 3.9,4.76 8.59,8.53 14.06,11.3 5.47,2.77 11.48,4.15 18.01,4.15 4.69,0 9.45,-0.78 14.28,-2.34 4.83,-1.56 9.3,-4.05 13.43,-7.46 4.12,-3.41 7.32,-7.82 9.59,-13.21l24.08 13.85c-2.98,7.54 -7.85,13.92 -14.6,19.18 -6.75,5.26 -14.32,9.23 -22.7,11.94 -8.38,2.7 -16.69,4.05 -24.93,4.05 -10.8,0 -20.67,-2.24 -29.62,-6.71 -8.95,-4.48 -16.66,-10.44 -23.12,-17.9 -6.46,-7.45 -11.51,-15.83 -15.12,-25.14 -3.62,-9.3 -5.44,-18.72 -5.44,-28.23z"/>
  <polygon id="_7" class="fil0" points="1149.48,1531.39 1149.48,1557.18 1044.42,1557.18 1044.42,1405.87 1147.57,1405.87 1147.57,1431.66 1073.83,1431.66 1073.83,1468.1 1137.55,1468.1 1137.55,1491.97 1073.83,1491.97 1073.83,1531.39 "/>
  <path id="_8" class="fil0" d="M1236.64 1558.24c-12.07,0 -22.34,-2.02 -30.79,-6.07 -8.45,-4.05 -15.27,-9.63 -20.46,-16.73 -5.19,-7.1 -8.99,-15.16 -11.4,-24.19 -2.42,-9.02 -3.62,-18.43 -3.62,-28.23l0 -77.15 29.41 0 0 77.15c0,6.25 0.6,12.32 1.81,18.22 1.21,5.9 3.23,11.18 6.07,15.87 2.84,4.69 6.61,8.38 11.3,11.08 4.69,2.7 10.51,4.05 17.47,4.05 7.11,0 13.03,-1.38 17.8,-4.15 4.76,-2.77 8.52,-6.5 11.29,-11.19 2.77,-4.69 4.79,-9.98 6.08,-15.87 1.28,-5.9 1.92,-11.9 1.92,-18.01l0 -77.15 29.19 0 0 77.15c0,10.37 -1.25,20.1 -3.73,29.19 -2.48,9.09 -6.39,17.09 -11.72,23.97 -5.33,6.89 -12.18,12.29 -20.56,16.2 -8.39,3.9 -18.4,5.86 -30.05,5.86z"/>
  <polygon id="_9" class="fil0" points="1445.48,1431.66 1397.11,1431.66 1397.11,1557.18 1367.92,1557.18 1367.92,1431.66 1319.54,1431.66 1319.54,1405.87 1445.48,1405.87 "/>
  <polygon id="_10" class="fil0" points="1464.23,1557.18 1464.23,1405.87 1493.64,1405.87 1493.64,1557.18 "/>
  <path id="_11" class="fil0" d="M1516.02 1480.25c0,-9.23 1.67,-18.3 5.01,-27.17 3.34,-8.88 8.21,-16.98 14.6,-24.3 6.4,-7.32 14.21,-13.14 23.45,-17.47 9.23,-4.33 19.75,-6.5 31.54,-6.5 13.92,0 25.96,3.06 36.12,9.17 10.16,6.11 17.72,14.06 22.7,23.87l-22.59 15.56c-2.55,-5.69 -5.89,-10.19 -10.01,-13.53 -4.12,-3.34 -8.53,-5.69 -13.21,-7.04 -4.69,-1.34 -9.3,-2.02 -13.85,-2.02 -7.39,0 -13.82,1.5 -19.29,4.48 -5.47,2.98 -10.06,6.89 -13.75,11.72 -3.69,4.83 -6.43,10.23 -8.2,16.2 -1.77,5.97 -2.67,11.94 -2.67,17.9 0,6.68 1.06,13.1 3.19,19.29 2.14,6.18 5.15,11.65 9.06,16.41 3.9,4.76 8.59,8.53 14.06,11.3 5.47,2.77 11.48,4.15 18.01,4.15 4.69,0 9.45,-0.78 14.28,-2.34 4.83,-1.56 9.3,-4.05 13.43,-7.46 4.12,-3.41 7.32,-7.82 9.59,-13.21l24.08 13.85c-2.98,7.54 -7.85,13.92 -14.6,19.18 -6.75,5.26 -14.32,9.23 -22.7,11.94 -8.38,2.7 -16.69,4.05 -24.93,4.05 -10.8,0 -20.67,-2.24 -29.62,-6.71 -8.95,-4.48 -16.66,-10.44 -23.12,-17.9 -6.46,-7.45 -11.51,-15.83 -15.12,-25.14 -3.62,-9.3 -5.44,-18.72 -5.44,-28.23z"/>
  <path id="_12" class="fil0" d="M1710.37 1405.87l29.83 0 55.62 151.31 -30.26 0 -12.57 -37.72 -55.55 0 -12.64 37.72 -30.26 0 55.83 -151.31zm35.73 92.92l-20.81 -62.44 -20.92 62.44 41.73 0z"/>
  <polygon id="_13" class="fil0" points="1812.44,1557.18 1812.44,1405.87 1841.85,1405.87 1841.85,1531.39 1918.99,1531.39 1918.99,1557.18 "/>
  <polygon id="_14" class="fil0" points="1981.64,1557.18 1981.64,1405.87 2011.05,1405.87 2011.05,1557.18 "/>
  <polygon id="_15" class="fil0" points="2072,1460 2072,1557.18 2042.59,1557.18 2042.59,1405.87 2066.03,1405.87 2144.24,1505.6 2144.24,1406.09 2173.65,1406.09 2173.65,1557.18 2149.14,1557.18 "/>
  <polygon id="_16" class="fil0" points="2220.75,1405.87 2261.66,1522.23 2302.15,1405.87 2333.05,1405.87 2275.72,1557.18 2247.38,1557.18 2189.84,1405.87 "/>
  <polygon id="_17" class="fil0" points="2454.31,1531.39 2454.31,1557.18 2349.24,1557.18 2349.24,1405.87 2452.39,1405.87 2452.39,1431.66 2378.65,1431.66 2378.65,1468.1 2442.37,1468.1 2442.37,1491.97 2378.65,1491.97 2378.65,1531.39 "/>
  <polygon id="_18" class="fil0" points="2506.73,1460 2506.73,1557.18 2477.31,1557.18 2477.31,1405.87 2500.76,1405.87 2578.97,1505.6 2578.97,1406.09 2608.38,1406.09 2608.38,1557.18 2583.87,1557.18 "/>
  <polygon id="_19" class="fil0" points="2753.07,1431.66 2704.7,1431.66 2704.7,1557.18 2675.51,1557.18 2675.51,1431.66 2627.13,1431.66 2627.13,1405.87 2753.07,1405.87 "/>
  <path id="_20" class="fil0" d="M2832.99 1558.24c-11.08,0 -21.14,-2.13 -30.16,-6.4 -9.02,-4.26 -16.76,-10.05 -23.23,-17.37 -6.46,-7.32 -11.47,-15.56 -15.03,-24.71 -3.55,-9.17 -5.32,-18.58 -5.32,-28.24 0,-10.09 1.88,-19.71 5.65,-28.88 3.76,-9.16 8.95,-17.33 15.56,-24.5 6.61,-7.18 14.42,-12.86 23.44,-17.05 9.02,-4.19 18.93,-6.29 29.73,-6.29 10.94,0 20.92,2.2 29.95,6.61 9.02,4.4 16.73,10.3 23.12,17.69 6.39,7.38 11.36,15.62 14.91,24.71 3.56,9.09 5.33,18.47 5.33,28.14 0,9.94 -1.85,19.5 -5.54,28.66 -3.69,9.17 -8.84,17.34 -15.45,24.51 -6.61,7.17 -14.42,12.82 -23.45,16.94 -9.02,4.12 -18.85,6.18 -29.51,6.18zm-43.9 -76.72c0,6.54 1,12.86 2.98,18.97 1.99,6.11 4.86,11.55 8.63,16.3 3.77,4.76 8.38,8.53 13.85,11.3 5.47,2.77 11.69,4.15 18.65,4.15 7.11,0 13.43,-1.46 18.97,-4.37 5.53,-2.91 10.16,-6.82 13.85,-11.72 3.69,-4.9 6.5,-10.37 8.42,-16.41 1.92,-6.03 2.88,-12.11 2.88,-18.22 0,-6.53 -1.03,-12.82 -3.09,-18.85 -2.06,-6.04 -4.98,-11.44 -8.74,-16.2 -3.77,-4.76 -8.39,-8.53 -13.86,-11.3 -5.47,-2.77 -11.61,-4.15 -18.43,-4.15 -7.25,0 -13.61,1.45 -19.07,4.36 -5.47,2.91 -10.05,6.79 -13.74,11.61 -3.69,4.83 -6.5,10.23 -8.42,16.2 -1.92,5.97 -2.88,12.07 -2.88,18.33z"/>
  <path id="_21" class="fil0" d="M2929.52 1557.18l0 -151.31 66.92 0c6.96,0 13.39,1.43 19.29,4.27 5.9,2.84 11.01,6.68 15.34,11.51 4.33,4.83 7.67,10.22 10.02,16.2 2.34,5.97 3.51,12.07 3.51,18.33 0,6.39 -1.1,12.53 -3.3,18.43 -2.2,5.9 -5.36,11.05 -9.48,15.45 -4.12,4.4 -8.95,7.82 -14.49,10.23l34.52 56.9 -32.39 0 -31.11 -50.72 -29.41 0 0 50.72 -29.41 0zm29.41 -76.51l36.86 0c3.7,0 6.96,-1.1 9.81,-3.3 2.84,-2.2 5.11,-5.15 6.82,-8.84 1.71,-3.7 2.55,-7.82 2.55,-12.36 0,-4.83 -0.99,-9.06 -2.98,-12.68 -1.99,-3.62 -4.51,-6.5 -7.57,-8.63 -3.05,-2.14 -6.35,-3.2 -9.91,-3.2l-35.59 0 0 49.01z"/>
  <polygon id="_22" class="fil0" points="3080.62,1405.87 3117.91,1477.05 3155.85,1405.87 3187.6,1405.87 3132.61,1504.33 3132.61,1557.18 3103.42,1557.18 3103.42,1503.9 3048.65,1405.87 "/>
  <path id="_23" class="fil0" d="M3282 1405.87l29.83 0 55.62 151.31 -30.26 0 -12.57 -37.72 -55.55 0 -12.64 37.72 -30.26 0 55.83 -151.31zm35.73 92.92l-20.81 -62.44 -20.92 62.44 41.73 0z"/>
  <polygon id="_24" class="fil0" points="3413.48,1460 3413.48,1557.18 3384.07,1557.18 3384.07,1405.87 3407.52,1405.87 3485.72,1505.6 3485.72,1406.09 3515.13,1406.09 3515.13,1557.18 3490.62,1557.18 "/>
  <path id="_25" class="fil0" d="M3546.67 1557.18l0 -151.31 54.99 0c16.48,0 30.26,3.38 41.34,10.13 11.08,6.75 19.39,15.84 24.93,27.27 5.54,11.44 8.31,24.12 8.31,38.04 0,15.34 -3.05,28.7 -9.16,40.07 -6.11,11.36 -14.74,20.17 -25.89,26.42 -11.15,6.25 -24.33,9.38 -39.53,9.38l-54.99 0zm99.95 -75.87c0,-9.8 -1.78,-18.43 -5.33,-25.89 -3.55,-7.46 -8.67,-13.28 -15.34,-17.47 -6.68,-4.19 -14.78,-6.29 -24.29,-6.29l-25.58 0 0 99.73 25.58 0c9.66,0 17.83,-2.17 24.5,-6.5 6.68,-4.33 11.76,-10.3 15.24,-17.9 3.48,-7.6 5.23,-16.16 5.23,-25.68z"/>
  <path id="_26" class="fil0" d="M3840.54 1445.51c-0.99,-1 -2.8,-2.35 -5.43,-4.05 -2.63,-1.7 -5.83,-3.34 -9.59,-4.9 -3.77,-1.56 -7.85,-2.94 -12.26,-4.15 -4.4,-1.21 -8.88,-1.81 -13.43,-1.81 -7.96,0 -13.96,1.5 -18.01,4.44 -4.05,2.98 -6.07,7.14 -6.07,12.53 0,4.09 1.28,7.35 3.84,9.73 2.56,2.42 6.4,4.48 11.51,6.15 5.11,1.71 11.51,3.55 19.18,5.54 9.94,2.38 18.58,5.32 25.89,8.77 7.32,3.48 12.93,7.99 16.83,13.56 3.91,5.62 5.86,13 5.86,22.16 0,8.06 -1.49,14.96 -4.47,20.67 -2.98,5.75 -7.11,10.37 -12.36,13.89 -5.26,3.56 -11.22,6.15 -17.9,7.75 -6.68,1.63 -13.78,2.45 -21.31,2.45 -7.53,0 -15.06,-0.78 -22.59,-2.34 -7.54,-1.56 -14.78,-3.81 -21.74,-6.71 -6.96,-2.91 -13.36,-6.43 -19.18,-10.55l13 -25.36c1.28,1.28 3.56,2.95 6.83,5.01 3.26,2.06 7.24,4.12 11.93,6.18 4.69,2.06 9.8,3.8 15.34,5.22 5.54,1.43 11.15,2.14 16.83,2.14 7.96,0 14,-1.35 18.11,-4.02 4.12,-2.67 6.18,-6.46 6.18,-11.36 0,-4.55 -1.64,-8.06 -4.9,-10.62 -3.27,-2.55 -7.82,-4.76 -13.64,-6.68 -5.82,-1.92 -12.71,-4.01 -20.67,-6.25 -9.52,-2.7 -17.47,-5.72 -23.87,-9.02 -6.4,-3.35 -11.15,-7.54 -14.28,-12.65 -3.13,-5.07 -4.69,-11.43 -4.69,-19.1 0,-10.31 2.45,-18.97 7.35,-25.97 4.9,-7.03 11.55,-12.32 19.93,-15.95 8.38,-3.59 17.68,-5.4 27.92,-5.4 7.11,0 13.82,0.79 20.14,2.35 6.32,1.56 12.26,3.62 17.79,6.18 5.54,2.56 10.52,5.33 14.92,8.31l-13 23.87z"/>
  <path id="_27" class="fil0" d="M3918.75 1405.87l29.83 0 55.62 151.31 -30.26 0 -12.57 -37.72 -55.55 0 -12.64 37.72 -30.26 0 55.83 -151.31zm35.73 92.92l-20.81 -62.44 -20.92 62.44 41.73 0z"/>
  <polygon id="_28" class="fil0" points="4020.82,1557.18 4020.82,1405.87 4050.24,1405.87 4050.24,1531.39 4127.38,1531.39 4127.38,1557.18 "/>
  <polygon id="_29" class="fil0" points="4250.35,1531.39 4250.35,1557.18 4145.28,1557.18 4145.28,1405.87 4248.43,1405.87 4248.43,1431.66 4174.69,1431.66 4174.69,1468.1 4238.41,1468.1 4238.41,1491.97 4174.69,1491.97 4174.69,1531.39 "/>
  <path id="_30" class="fil0" d="M4363.5 1445.51c-0.99,-1 -2.8,-2.35 -5.43,-4.05 -2.63,-1.7 -5.83,-3.34 -9.59,-4.9 -3.77,-1.56 -7.85,-2.94 -12.26,-4.15 -4.4,-1.21 -8.88,-1.81 -13.43,-1.81 -7.96,0 -13.96,1.5 -18.01,4.44 -4.05,2.98 -6.07,7.14 -6.07,12.53 0,4.09 1.28,7.35 3.84,9.73 2.56,2.42 6.4,4.48 11.51,6.15 5.11,1.71 11.51,3.55 19.18,5.54 9.94,2.38 18.58,5.32 25.89,8.77 7.32,3.48 12.93,7.99 16.83,13.56 3.91,5.62 5.86,13 5.86,22.16 0,8.06 -1.49,14.96 -4.47,20.67 -2.98,5.75 -7.11,10.37 -12.36,13.89 -5.26,3.56 -11.22,6.15 -17.9,7.75 -6.68,1.63 -13.78,2.45 -21.31,2.45 -7.53,0 -15.06,-0.78 -22.59,-2.34 -7.54,-1.56 -14.78,-3.81 -21.74,-6.71 -6.96,-2.91 -13.36,-6.43 -19.18,-10.55l13 -25.36c1.28,1.28 3.56,2.95 6.83,5.01 3.26,2.06 7.24,4.12 11.93,6.18 4.69,2.06 9.8,3.8 15.34,5.22 5.54,1.43 11.15,2.14 16.83,2.14 7.96,0 14,-1.35 18.11,-4.02 4.12,-2.67 6.18,-6.46 6.18,-11.36 0,-4.55 -1.64,-8.06 -4.9,-10.62 -3.27,-2.55 -7.82,-4.76 -13.64,-6.68 -5.82,-1.92 -12.71,-4.01 -20.67,-6.25 -9.52,-2.7 -17.47,-5.72 -23.87,-9.02 -6.4,-3.35 -11.15,-7.54 -14.28,-12.65 -3.13,-5.07 -4.69,-11.43 -4.69,-19.1 0,-10.31 2.45,-18.97 7.35,-25.97 4.9,-7.03 11.55,-12.32 19.93,-15.95 8.38,-3.59 17.68,-5.4 27.92,-5.4 7.11,0 13.82,0.79 20.14,2.35 6.32,1.56 12.26,3.62 17.79,6.18 5.54,2.56 10.52,5.33 14.92,8.31l-13 23.87z"/>
  <path id="_31" class="fil0" d="M4545.27 1445.51c-0.99,-1 -2.8,-2.35 -5.43,-4.05 -2.63,-1.7 -5.83,-3.34 -9.59,-4.9 -3.77,-1.56 -7.85,-2.94 -12.26,-4.15 -4.4,-1.21 -8.88,-1.81 -13.43,-1.81 -7.96,0 -13.96,1.5 -18.01,4.44 -4.05,2.98 -6.07,7.14 -6.07,12.53 0,4.09 1.28,7.35 3.84,9.73 2.56,2.42 6.4,4.48 11.51,6.15 5.11,1.71 11.51,3.55 19.18,5.54 9.94,2.38 18.58,5.32 25.89,8.77 7.32,3.48 12.93,7.99 16.83,13.56 3.91,5.62 5.86,13 5.86,22.16 0,8.06 -1.49,14.96 -4.47,20.67 -2.98,5.75 -7.11,10.37 -12.36,13.89 -5.26,3.56 -11.22,6.15 -17.9,7.75 -6.68,1.63 -13.78,2.45 -21.31,2.45 -7.53,0 -15.06,-0.78 -22.59,-2.34 -7.54,-1.56 -14.78,-3.81 -21.74,-6.71 -6.96,-2.91 -13.36,-6.43 -19.18,-10.55l13 -25.36c1.28,1.28 3.56,2.95 6.83,5.01 3.26,2.06 7.24,4.12 11.93,6.18 4.69,2.06 9.8,3.8 15.34,5.22 5.54,1.43 11.15,2.14 16.83,2.14 7.96,0 14,-1.35 18.11,-4.02 4.12,-2.67 6.18,-6.46 6.18,-11.36 0,-4.55 -1.64,-8.06 -4.9,-10.62 -3.27,-2.55 -7.82,-4.76 -13.64,-6.68 -5.82,-1.92 -12.71,-4.01 -20.67,-6.25 -9.52,-2.7 -17.47,-5.72 -23.87,-9.02 -6.4,-3.35 -11.15,-7.54 -14.28,-12.65 -3.13,-5.07 -4.69,-11.43 -4.69,-19.1 0,-10.31 2.45,-18.97 7.35,-25.97 4.9,-7.03 11.55,-12.32 19.93,-15.95 8.38,-3.59 17.68,-5.4 27.92,-5.4 7.11,0 13.82,0.79 20.14,2.35 6.32,1.56 12.26,3.62 17.79,6.18 5.54,2.56 10.52,5.33 14.92,8.31l-13 23.87z"/>
  <polygon id="_32" class="fil0" points="4598.76,1405.87 4636.06,1477.05 4673.99,1405.87 4705.75,1405.87 4650.76,1504.33 4650.76,1557.18 4621.57,1557.18 4621.57,1503.9 4566.8,1405.87 "/>
  <path id="_33" class="fil0" d="M4806.11 1445.51c-0.99,-1 -2.8,-2.35 -5.43,-4.05 -2.63,-1.7 -5.83,-3.34 -9.59,-4.9 -3.77,-1.56 -7.85,-2.94 -12.26,-4.15 -4.4,-1.21 -8.88,-1.81 -13.43,-1.81 -7.96,0 -13.96,1.5 -18.01,4.44 -4.05,2.98 -6.07,7.14 -6.07,12.53 0,4.09 1.28,7.35 3.84,9.73 2.56,2.42 6.4,4.48 11.51,6.15 5.11,1.71 11.51,3.55 19.18,5.54 9.94,2.38 18.58,5.32 25.89,8.77 7.32,3.48 12.93,7.99 16.83,13.56 3.91,5.62 5.86,13 5.86,22.16 0,8.06 -1.49,14.96 -4.47,20.67 -2.98,5.75 -7.11,10.37 -12.36,13.89 -5.26,3.56 -11.22,6.15 -17.9,7.75 -6.68,1.63 -13.78,2.45 -21.31,2.45 -7.53,0 -15.06,-0.78 -22.59,-2.34 -7.54,-1.56 -14.78,-3.81 -21.74,-6.71 -6.96,-2.91 -13.36,-6.43 -19.18,-10.55l13 -25.36c1.28,1.28 3.56,2.95 6.83,5.01 3.26,2.06 7.24,4.12 11.93,6.18 4.69,2.06 9.8,3.8 15.34,5.22 5.54,1.43 11.15,2.14 16.83,2.14 7.96,0 14,-1.35 18.11,-4.02 4.12,-2.67 6.18,-6.46 6.18,-11.36 0,-4.55 -1.64,-8.06 -4.9,-10.62 -3.27,-2.55 -7.82,-4.76 -13.64,-6.68 -5.82,-1.92 -12.71,-4.01 -20.67,-6.25 -9.52,-2.7 -17.47,-5.72 -23.87,-9.02 -6.4,-3.35 -11.15,-7.54 -14.28,-12.65 -3.13,-5.07 -4.69,-11.43 -4.69,-19.1 0,-10.31 2.45,-18.97 7.35,-25.97 4.9,-7.03 11.55,-12.32 19.93,-15.95 8.38,-3.59 17.68,-5.4 27.92,-5.4 7.11,0 13.82,0.79 20.14,2.35 6.32,1.56 12.26,3.62 17.79,6.18 5.54,2.56 10.52,5.33 14.92,8.31l-13 23.87z"/>
  <polygon id="_34" class="fil0" points="4959.76,1431.66 4911.39,1431.66 4911.39,1557.18 4882.2,1557.18 4882.2,1431.66 4833.82,1431.66 4833.82,1405.87 4959.76,1405.87 "/>
  <polygon id="_35" class="fil0" points="5083.58,1531.39 5083.58,1557.18 4978.51,1557.18 4978.51,1405.87 5081.66,1405.87 5081.66,1431.66 5007.92,1431.66 5007.92,1468.1 5071.64,1468.1 5071.64,1491.97 5007.92,1491.97 5007.92,1531.39 "/>
  <polygon id="_36" class="fil0" points="5229.98,1557.18 5229.98,1457.87 5191.19,1531.82 5174.78,1531.82 5136,1457.87 5136,1557.18 5106.58,1557.18 5106.58,1405.87 5138.13,1405.87 5182.88,1491.97 5228.06,1405.87 5259.39,1405.87 5259.39,1557.18 "/>
  <path class="fil1" d="M1578.37 1260.51l0 -1251.69 539.46 0c61.12,0 117.53,12.34 169.24,37.02 51.72,24.68 96.37,57.89 133.99,99.61 37.61,41.72 66.7,88.44 87.27,140.15 20.57,51.71 30.85,104.01 30.85,156.89 0,74.05 -17.33,143.98 -52,209.8 -34.67,65.81 -82.86,119.59 -144.56,161.3 -61.7,41.73 -133.68,62.58 -215.96,62.58l-204.5 0 0 384.32 -343.78 0zm343.78 -684.02l181.58 0c14.11,0 27.62,-4.12 40.55,-12.34 12.93,-8.23 23.8,-22.33 32.61,-42.31 8.81,-19.98 13.22,-46.42 13.22,-79.34 0,-35.26 -4.99,-62.58 -14.98,-81.97 -9.99,-19.39 -22.34,-32.91 -37.02,-40.55 -14.69,-7.63 -29.09,-11.45 -43.19,-11.45l-172.77 0 0 267.96z"/>
  <polygon id="_1_0" class="fil1" points="2676.68,1260.51 2676.68,8.82 3020.45,8.82 3020.45,1260.51 "/>
  <path id="_2_1" class="fil1" d="M3993.59 419.58c0,0 -9.99,-5.87 -29.97,-17.62 -19.98,-11.76 -46.42,-24.98 -79.33,-39.67 -32.91,-14.69 -68.75,-27.92 -107.54,-39.67 -38.78,-11.75 -76.98,-17.62 -114.59,-17.62 -29.38,0 -53.48,4.7 -72.29,14.1 -18.8,9.11 -28.2,24.98 -28.2,47.01 0,20.86 9.4,37.91 28.2,50.83 18.81,12.63 45.55,24.39 80.21,34.67 34.67,10.58 76.1,23.51 124.29,38.49 77.57,23.51 144.56,50.24 200.98,80.51 56.41,30.26 99.9,69.05 130.46,116.06 30.55,47.31 45.83,109.89 45.83,187.76 0,74.63 -13.52,137.22 -40.55,187.76 -27.03,50.83 -63.47,91.37 -109.3,121.64 -45.83,30.26 -96.96,52 -153.38,65.52 -56.41,13.22 -114.01,19.98 -172.77,19.98 -59.94,0 -122.53,-6.17 -187.76,-18.51 -65.23,-12.34 -128.4,-29.38 -189.52,-51.13 -61.12,-21.74 -116.94,-47.31 -167.48,-76.69l148.09 -301.46c0,0 11.75,7.05 35.26,21.15 23.51,14.11 54.65,29.97 93.44,47.6 38.78,17.63 81.97,33.5 129.58,47.6 47.6,14.11 95.5,21.15 143.68,21.15 37.61,0 63.76,-4.7 78.46,-14.39 14.69,-9.4 22.03,-22.04 22.03,-37.61 0,-24.68 -12.93,-43.49 -38.78,-57 -25.86,-13.52 -59.65,-26.44 -101.37,-38.49 -41.73,-12.35 -87.86,-26.74 -138.39,-42.9 -72.87,-24.68 -132.81,-52.31 -179.83,-83.15 -47.01,-30.85 -81.68,-67.88 -104.01,-110.48 -22.34,-42.61 -33.5,-94.03 -33.5,-154.85 0,-92.26 21.74,-169.24 65.23,-230.95 43.49,-61.99 100.78,-109.01 171.89,-141.03 71.1,-32.03 147.79,-48.19 230.06,-48.19 61.11,0 120.17,7.35 177.17,22.04 57,14.69 110.48,32.61 160.43,53.76 49.95,21.16 93.73,41.14 131.34,59.95l-148.09 283.83z"/>
  <path id="_3_2" class="fil1" d="M5081.33 419.58c0,0 -9.99,-5.87 -29.97,-17.62 -19.98,-11.76 -46.42,-24.98 -79.33,-39.67 -32.91,-14.69 -68.75,-27.92 -107.54,-39.67 -38.78,-11.75 -76.98,-17.62 -114.59,-17.62 -29.38,0 -53.48,4.7 -72.29,14.1 -18.8,9.11 -28.2,24.98 -28.2,47.01 0,20.86 9.4,37.91 28.2,50.83 18.81,12.63 45.55,24.39 80.21,34.67 34.67,10.58 76.1,23.51 124.29,38.49 77.57,23.51 144.56,50.24 200.98,80.51 56.41,30.26 99.9,69.05 130.46,116.06 30.55,47.31 45.83,109.89 45.83,187.76 0,74.63 -13.52,137.22 -40.55,187.76 -27.03,50.83 -63.47,91.37 -109.3,121.64 -45.83,30.26 -96.96,52 -153.38,65.52 -56.41,13.22 -114.01,19.98 -172.77,19.98 -59.94,0 -122.53,-6.17 -187.76,-18.51 -65.23,-12.34 -128.4,-29.38 -189.52,-51.13 -61.12,-21.74 -116.94,-47.31 -167.48,-76.69l148.09 -301.46c0,0 11.75,7.05 35.26,21.15 23.51,14.11 54.65,29.97 93.44,47.6 38.78,17.63 81.97,33.5 129.58,47.6 47.6,14.11 95.5,21.15 143.68,21.15 37.61,0 63.76,-4.7 78.46,-14.39 14.69,-9.4 22.03,-22.04 22.03,-37.61 0,-24.68 -12.93,-43.49 -38.78,-57 -25.86,-13.52 -59.65,-26.44 -101.37,-38.49 -41.73,-12.35 -87.86,-26.74 -138.39,-42.9 -72.87,-24.68 -132.81,-52.31 -179.83,-83.15 -47.01,-30.85 -81.68,-67.88 -104.01,-110.48 -22.34,-42.61 -33.5,-94.03 -33.5,-154.85 0,-92.26 21.74,-169.24 65.23,-230.95 43.49,-61.99 100.78,-109.01 171.89,-141.03 71.1,-32.03 147.79,-48.19 230.06,-48.19 61.11,0 120.17,7.35 177.17,22.04 57,14.69 110.48,32.61 160.43,53.76 49.95,21.16 93.73,41.14 131.34,59.95l-148.09 283.83z"/>
  <path class="fil2" d="M-0 0l1269.69 0 0 1269.69 -1269.69 0 0 -1269.69zm519.77 404.65l230.13 0 0 -57.6 -230.13 0 0 57.6zm-172.66 0l0 575.46 -14.36 0c-27.52,0 -51.29,-9.94 -71.02,-29.68 -19.74,-19.87 -29.68,-43.5 -29.68,-71.02l0 -374.05c0,-27.66 9.94,-51.29 29.68,-71.02 19.73,-19.87 43.5,-29.68 71.02,-29.68l14.36 0zm532.22 0l0 575.46 -488.98 0 0 -575.46 71.83 0 0 -71.96c0,-11.95 4.3,-22.15 12.63,-30.61 8.46,-8.33 18.53,-12.49 30.61,-12.49l258.86 0c12.08,0 22.15,4.16 30.61,12.49 8.33,8.46 12.63,18.66 12.63,30.61l0 71.96 71.83 0zm158.3 100.7l0 374.05c0,27.52 -9.94,51.16 -29.68,71.02 -19.73,19.74 -43.5,29.68 -71.02,29.68l-14.36 0 0 -575.46 14.36 0c27.52,0 51.29,9.8 71.02,29.68 19.74,19.74 29.68,43.37 29.68,71.02z"/>
  <g id="_2406091445536">
   <rect class="fil3" x="577.24" y="519.57" width="115.19" height="345.47"/>
   <rect class="fil3" transform="matrix(2.64845E-14 -1 1 2.64845E-14 462.111 749.91)" width="115.19" height="345.47"/>
  </g>
 </g>
</svg>
